<svg width="46" height="46" viewBox="0 0 46 46" fill="none" xmlns="http://www.w3.org/2000/svg">
<g id="Icon">
<circle id="Ellipse 20" cx="23.1042" cy="23.0436" r="22.5163" fill="#E2F4E2"/>
<path id="Vector" d="M19.9122 23.1942C20.6426 24.7024 21.8621 25.9188 23.3722 26.6453C23.4836 26.6981 23.6068 26.7209 23.7297 26.7115C23.8526 26.7022 23.9709 26.661 24.0731 26.5921L26.291 25.1105C26.389 25.044 26.5022 25.0035 26.6201 24.9926C26.738 24.9818 26.8568 25.001 26.9652 25.0484L31.1172 26.8316C31.2591 26.8907 31.3777 26.9947 31.4546 27.1278C31.5316 27.2609 31.5626 27.4155 31.5431 27.568C31.4115 28.5951 30.9101 29.5391 30.1328 30.2232C29.3556 30.9074 28.3556 31.285 27.3201 31.2852C24.1201 31.2852 21.0512 30.014 18.7885 27.7513C16.5258 25.4886 15.2546 22.4197 15.2546 19.2197C15.2548 18.1842 15.6323 17.1842 16.3165 16.4069C17.0007 15.6297 17.9447 15.1283 18.9718 14.9967C19.1243 14.9772 19.2789 15.0082 19.412 15.0852C19.545 15.1621 19.6491 15.2807 19.7082 15.4226L21.4914 19.5834C21.5378 19.6902 21.5572 19.8067 21.5479 19.9228C21.5386 20.0388 21.5009 20.1508 21.4382 20.2488L19.9566 22.5022C19.8906 22.6041 19.8519 22.7213 19.8441 22.8424C19.8364 22.9636 19.8598 23.0847 19.9122 23.1942V23.1942Z" stroke="#37A437" stroke-linecap="round" stroke-linejoin="round"/>
</g>
</svg>
